<?xml version="1.0" standalone="no"?>
    <svg width="7.68in" height="3.84in" viewBox="0 0 400 200" 
    xmlns="http://www.w3.org/2000/svg" version="1.1">

    
    <polyline fill="none" stroke="black" stroke-width="1" points="40.0,174.0 72.0,172.52 104.0,168.07999999999998 136.0,160.68 168.0,150.32 200.0,137.0 232.0,120.72 264.0,101.48 296.0,79.28 328.0,54.11999999999999 360.0,26.0 " />
 <polyline fill="none" stroke="blue" stroke-width="1" points="40.0,26.0 72.0,27.48 104.0,31.920000000000005 136.0,39.31999999999999 168.0,49.68000000000001 200.0,63.0 232.0,79.28 264.0,98.52 296.0,120.72 328.0,145.88 360.0,174.0 " />
 
    <g font-family="sans-serif" font-size="10" > <text x="362.0" y="26.0" dy="0" fill="black" dominant-baseline="middle" > y1 </text>
 <text x="362.0" y="174.0" dy="0" fill="blue" dominant-baseline="middle" > y2 </text>
</g>
    <polyline fill="none" stroke="black" stroke-width="1" points="40.0,176.0 40.0,178.0 200.0,178.0 200.0,176.0 200.0,178.0 360.0,178.0 360.0,176.0" />
    <g font-family="sans-serif" font-size="10" > <text x="40.0" y="180.0" fill="black" text-anchor="middle" dominant-baseline="hanging" > 0 </text>
 <text x="200.0" y="180.0" fill="black" text-anchor="middle" dominant-baseline="hanging" > 5 </text>
 <text x="360.0" y="180.0" fill="black" text-anchor="middle" dominant-baseline="hanging" > 10 </text> </g>
    <text x="200.0" y="198" fill="black" text-anchor="middle" font-family="sans-serif" font-size="10"> x label </text>
    <polyline fill="none" stroke="black" stroke-width="1" points="38.0,174.0 36.0,174.0 36.0,137.0 38.0,137.0 36.0,137.0 36.0,100.0 38.0,100.0 36.0,100.0 36.0,63.0 38.0,63.0 36.0,63.0 36.0,26.0 38.0,26.0" />
    <g font-family="sans-serif" font-size="10" > <text x="34.0" y="174.0" fill="black" text-anchor="end" dominant-baseline="middle" > 0 </text>
 <text x="34.0" y="137.0" fill="black" text-anchor="end" dominant-baseline="middle" > 25 </text>
 <text x="34.0" y="100.0" fill="black" text-anchor="end" dominant-baseline="middle" > 50 </text>
 <text x="34.0" y="63.0" fill="black" text-anchor="end" dominant-baseline="middle" > 75 </text>
 <text x="34.0" y="26.0" fill="black" text-anchor="end" dominant-baseline="middle" > 100 </text> </g>
    <text fill="black" text-anchor="middle" dominant-baseline="hanging" transform="translate(2,100.0) rotate(270)" font-family="sans-serif" font-size="10"> y label </text>
    <text x="200.0" y="2" fill="black" text-anchor="middle" dominant-baseline="hanging" font-family="sans-serif" font-size="10"> Pandas Example </text>

    </svg>
    