<?xml version="1.0" standalone="no"?> <svg width="7.68in" height="3.84in" viewBox="0 0 400 200" xmlns="http://www.w3.org/2000/svg" version="1.1">
<polygon fill="black" stroke="none" stroke-width="0" fill-opacity="1" points="40.0,174.0 40.0,137.0 73.6842105263158,137.0 73.6842105263158,174.0 124.21052631578948,174.0 124.21052631578948,81.5 157.89473684210526,81.5 157.89473684210526,174.0 208.42105263157896,174.0 208.42105263157896,26.0 242.10526315789474,26.0 242.10526315789474,174.0 292.63157894736844,174.0 292.63157894736844,118.5 326.3157894736842,118.5 326.3157894736842,174.0 326.3157894736842,174.0 326.3157894736842,174.0 292.63157894736844,174.0 292.63157894736844,174.0 242.10526315789474,174.0 242.10526315789474,174.0 208.42105263157896,174.0 208.42105263157896,174.0 157.89473684210526,174.0 157.89473684210526,174.0 124.21052631578948,174.0 124.21052631578948,174.0 73.6842105263158,174.0 73.6842105263158,174.0 40.0,174.0 40.0,174.0 " />
<polygon fill="blue" stroke="none" stroke-width="0" fill-opacity="1" points="73.6842105263158,174.0 73.6842105263158,155.5 107.36842105263159,155.5 107.36842105263159,174.0 157.89473684210526,174.0 157.89473684210526,81.5 191.57894736842104,81.5 191.57894736842104,174.0 242.10526315789474,174.0 242.10526315789474,63.0 275.7894736842105,63.0 275.7894736842105,174.0 326.3157894736842,174.0 326.3157894736842,100.0 360.0,100.0 360.0,174.0 360.0,174.0 360.0,174.0 326.3157894736842,174.0 326.3157894736842,174.0 275.7894736842105,174.0 275.7894736842105,174.0 242.10526315789474,174.0 242.10526315789474,174.0 191.57894736842104,174.0 191.57894736842104,174.0 157.89473684210526,174.0 157.89473684210526,174.0 107.36842105263159,174.0 107.36842105263159,174.0 73.6842105263158,174.0 73.6842105263158,174.0 " />


<g font-family="sans-serif" font-size="10" ></g>
<polyline fill="none" stroke="black" stroke-width="1" points="73.6842105263158,176.0 73.6842105263158,178.0 157.89473684210526,178.0 157.89473684210526,176.0 157.89473684210526,178.0 242.10526315789474,178.0 242.10526315789474,176.0 242.10526315789474,178.0 326.3157894736842,178.0 326.3157894736842,176.0" />
<g font-family="sans-serif" font-size="10" >
    <text x="73.6842105263158" y="180.0" fill="black" text-anchor="middle" dominant-baseline="hanging" > Boreas </text>
    <text x="157.89473684210526" y="180.0" fill="black" text-anchor="middle" dominant-baseline="hanging" > Zephryos </text>
    <text x="242.10526315789474" y="180.0" fill="black" text-anchor="middle" dominant-baseline="hanging" > Notos </text>
    <text x="326.3157894736842" y="180.0" fill="black" text-anchor="middle" dominant-baseline="hanging" > Euros </text> </g>

<polyline fill="none" stroke="black" stroke-width="1" points="38.0,174.0 36.0,174.0 36.0,137.0 38.0,137.0 36.0,137.0 36.0,100.0 38.0,100.0 36.0,100.0 36.0,63.0 38.0,63.0 36.0,63.0 36.0,26.0 38.0,26.0" />
<g font-family="sans-serif" font-size="10" >
    <text x="34.0" y="174.0" fill="black" text-anchor="end" dominant-baseline="middle" > 0 </text>
    <text x="34.0" y="137.0" fill="black" text-anchor="end" dominant-baseline="middle" > 2 </text>
    <text x="34.0" y="100.0" fill="black" text-anchor="end" dominant-baseline="middle" > 4 </text>
    <text x="34.0" y="63.0" fill="black" text-anchor="end" dominant-baseline="middle" > 6 </text><text x="34.0" y="26.0" fill="black" text-anchor="end" dominant-baseline="middle" > 8 </text> </g>

</svg>