<?xml version="1.0" standalone="no"?> <svg width="7.68in" height="3.84in" viewBox="0 0 400 200" xmlns="http://www.w3.org/2000/svg" version="1.1">
<polygon fill="black" stroke="none" stroke-width="0" fill-opacity="0.2" points="40.0,69.27381712597278 92.45901639344262,62.08886027600978 146.66666666666666,51.07893853295193 199.12568306010928,56.608495423294784 253.33333333333331,51.03225877665719 307.5409836065574,61.283615857683166 360.0,53.63980691673523 360.0,75.52258624565789 307.5409836065574,68.93970920435174 253.33333333333331,58.85531050283591 199.12568306010928,64.30360205277131 146.66666666666666,58.77669812560464 92.45901639344262,69.75632139855601 40.0,76.86944934967192 " />
<polygon fill="blue" stroke="none" stroke-width="0" fill-opacity="0.2" points="40.0,61.48343280940574 92.45901639344262,61.52313753090484 146.66666666666666,55.27169019309509 199.12568306010928,68.93887248230612 253.33333333333331,61.36581044499712 307.5409836065574,56.41958451648502 360.0,79.65197506207048 360.0,97.57879416869879 307.5409836065574,64.50018388715466 253.33333333333331,69.0284888424139 199.12568306010928,76.70429548984347 146.66666666666666,62.986217349484384 92.45901639344262,68.33468237430833 40.0,69.67607053347875 " />

<polyline fill="none" stroke="black" stroke-width="1" points="40.0,73.07163323782235 92.45901639344262,65.9225908372829 146.66666666666666,54.92781832927828 199.12568306010928,60.45604873803306 253.33333333333331,54.94378463974654 307.5409836065574,65.11166253101746 360.0,64.58119658119656 " />
<polyline fill="none" stroke="blue" stroke-width="1" points="40.0,65.57975167144224 92.45901639344262,64.92890995260659 146.66666666666666,59.128953771289744 199.12568306010928,72.8215839860748 253.33333333333331,65.1971496437055 307.5409836065574,60.45988420181984 360.0,88.61538461538464 " />

<g font-family="sans-serif" font-size="10" >
    <text x="362.0" y="64.58119658119656" dy="0" fill="black" dominant-baseline="middle">Home</text>
    <text x="362.0" y="88.61538461538464" dy="0" fill="blue" dominant-baseline="middle">Away</text></g>
<polyline fill="none" stroke="black" stroke-width="1" points="40.0,176.0 40.0,178.0 360.0,178.0 360.0,176.0" />
<g font-family="sans-serif" font-size="10" >
    <text x="40.0" y="180.0" fill="black" text-anchor="middle" dominant-baseline="hanging" > 2016-04-01 </text>
    <text x="360.0" y="180.0" fill="black" text-anchor="middle" dominant-baseline="hanging" > 2016-10-01 </text> </g>
<text x="200.0" y="198" fill="black" text-anchor="middle" font-family="sans-serif" font-size="10"> Game month </text>
<polyline fill="none" stroke="black" stroke-width="1" points="38.0,174.0 36.0,174.0 36.0,124.66666666666667 38.0,124.66666666666667 36.0,124.66666666666667 36.0,75.33333333333334 38.0,75.33333333333334 36.0,75.33333333333334 36.0,26.0 38.0,26.0" />
<g font-family="sans-serif" font-size="10" >
    <text x="34.0" y="174.0" fill="black" text-anchor="end" dominant-baseline="middle" > 0 </text>
    <text x="34.0" y="124.66666666666667" fill="black" text-anchor="end" dominant-baseline="middle" > 2 </text>
    <text x="34.0" y="75.33333333333334" fill="black" text-anchor="end" dominant-baseline="middle" > 4 </text><text x="34.0" y="26.0" fill="black" text-anchor="end" dominant-baseline="middle" > 6 </text> </g>
<text fill="black" text-anchor="middle" dominant-baseline="hanging" transform="translate(2,100.0) rotate(270)" font-family="sans-serif" font-size="10"> Runs (+/- SE) </text>
<text x="200.0" y="2" fill="black" text-anchor="middle" dominant-baseline="hanging" font-family="sans-serif" font-size="10"> Error Patch Example </text></svg>