<?xml version="1.0" standalone="no"?>
    <svg width="7.68in" height="3.84in" viewBox="0 0 400 200" 
    xmlns="http://www.w3.org/2000/svg" version="1.1">

    <polygon fill="black" stroke="none" stroke-width="0" fill-opacity="0.2" points="40.0,158.97370398196844 41.599999999999994,158.0169568933133 43.19999999999999,157.0793441021788 44.79999999999998,156.16067233283246 46.39999999999998,155.2607483095417 48.0,154.379378756574 49.599999999999994,153.51637039819684 51.19999999999999,152.67152995867767 52.79999999999998,151.844664162284 54.400000000000006,151.03557973328324 56.0,150.24408339594288 57.599999999999994,149.46998187453042 59.19999999999999,148.7130818933133 60.79999999999998,147.97319017655894 62.400000000000006,147.25011344853493 64.0,146.54365843350863 65.6,145.85363185574755 67.19999999999999,145.17984043951915 68.79999999999998,144.5220909090909 70.4,143.88018998873028 72.0,143.25394440270475 73.6,142.64316087528175 75.19999999999999,142.04764613072877 76.80000000000001,141.4672068933133 78.39999999999999,140.90164988730277 80.0,140.3507818369647 81.6,139.81440946656647 83.19999999999999,139.29233950037565 84.8,138.78437866265966 86.39999999999999,138.29033367768594 88.0,137.810011269722 89.6,137.3432181630353 91.19999999999999,136.8897610818933 92.79999999999998,136.44944675056348 94.4,136.02208189331327 96.0,135.6074732344102 97.6,135.2054274981217 99.19999999999999,134.81575140871524 100.80000000000001,134.4382516904583 102.39999999999999,134.07273506761834 104.0,133.7190082644628 105.60000000000001,133.3768780052592 107.19999999999999,133.04615101427495 108.8,132.7266340157776 110.39999999999999,132.41813373403457 112.0,132.1204568933133 113.60000000000001,131.8334102178813 115.19999999999999,131.556800432006 116.80000000000001,131.2904342599549 118.39999999999999,131.03411842599547 120.0,130.78765965439518 121.60000000000001,130.5508646694215 123.19999999999999,130.32354019534188 124.80000000000001,130.10549295642375 126.39999999999999,129.89652967693462 128.0,129.696457081142 129.6,129.50508189331327 131.20000000000002,129.322210837716 132.8,129.14765063861756 134.4,128.98120802028546 136.0,128.8226897069872 137.60000000000002,128.67190242299023 139.2,128.52865289256198 140.8,128.39274783996996 142.4,128.2639939894816 144.0,128.14219806536437 145.59999999999997,128.02716679188578 147.2,127.91870689331328 148.8,127.81662509391435 150.4,127.72072811795643 152.0,127.63082268970697 153.60000000000002,127.5467155334335 155.2,127.46821337340346 156.8,127.39512293388428 158.4,127.32725093914348 160.0,127.2644041134485 161.60000000000002,127.20638918106687 163.2,127.15301286626594 164.8,127.10408189331329 166.4,127.0594029864763 168.0,127.01878287002252 169.6,126.98202826821938 171.20000000000002,126.94894590533433 172.8,126.91934250563486 174.40000000000003,126.8930247933884 176.0,126.8697994928625 177.6,126.84947332832456 179.2,126.83185302404205 180.80000000000004,126.8167453042825 182.4,126.80395689331328 184.0,126.79329451540194 185.6,126.78456489481593 187.20000000000002,126.7775747558227 188.8,126.7721308226897 190.4,126.76803981968445 192.0,126.76510847107437 193.60000000000002,126.76314350112698 195.20000000000002,126.76195163410968 196.80000000000004,126.76133959428999 198.4,126.76111410593536 200.0,126.76108189331327 201.60000000000002,126.7610496806912 203.20000000000002,126.76082419233659 204.8,126.76021215251689 206.4,126.75902028549963 208.0,126.75705531555221 209.60000000000002,126.75412396694213 211.2,126.75003296393687 212.8,126.74458903080391 214.40000000000003,126.73759889181066 216.00000000000003,126.72886927122464 217.6,126.7182068933133 219.2,126.70541848234409 220.80000000000004,126.69031076258453 222.40000000000003,126.67269045830201 224.0,126.65236429376408 225.6,126.62913899323814 227.20000000000002,126.60282128099172 228.80000000000004,126.57321788129224 230.4,126.5401355184072 232.0,126.50338091660406 233.60000000000002,126.46276080015025 235.20000000000002,126.41808189331329 236.8,126.36915092036062 238.4,126.31577460555971 240.0,126.25775967317804 241.60000000000002,126.19491284748307 243.20000000000002,126.12704085274228 244.8,126.05395041322312 246.4,125.97544825319308 248.0,125.8913410969196 249.60000000000002,125.80143566867017 251.19999999999996,125.70553869271225 252.8,125.60345689331328 254.4,125.49499699474079 256.0,125.37996572126218 257.6,125.25816979714499 259.20000000000005,125.12941594665664 260.8,124.9935108940646 262.4,124.85026136363635 264.0,124.69947407963936 265.6,124.54095576634109 267.20000000000005,124.374513148009 268.80000000000007,124.19995294891058 270.4,124.01708189331329 272.0,123.82570670548459 273.6,123.62563410969194 275.20000000000005,123.41667083020283 276.8,123.19862359128476 278.4,122.97129911720509 280.0,122.7345041322314 281.6,122.4880453606311 283.20000000000005,122.23172952667166 284.8,121.96536335462056 286.4,121.68875356874528 288.0,121.40170689331327 289.6,121.10403005259205 291.19999999999993,120.79552977084897 292.8,120.47601277235161 294.4,120.14528578136736 296.0,119.80315552216376 297.6,119.44942871900825 299.2,119.08391209616828 300.8,118.70641237791133 302.40000000000003,118.31673628850487 304.0,117.91469055221636 305.6,117.5000818933133 307.2,117.07271703606308 308.80000000000007,116.63240270473327 310.40000000000003,116.17894562359128 312.0,115.71215251690457 313.6000000000001,115.23183010894063 315.2,114.73778512396693 316.8,114.22982428625092 318.4,113.70775432006008 320.0,113.17138194966188 321.6000000000001,112.62051389932381 323.2,112.05495689331329 324.8,111.4745176558978 326.4,110.87900291134486 328.0,110.26821938392185 329.6,109.64197379789628 331.20000000000005,109.00007287753569 332.8,108.34232334710741 334.40000000000003,107.66853193087901 336.0,106.97850535311794 337.6,106.27205033809165 339.20000000000005,105.5489736100676 340.8,104.80908189331329 342.40000000000003,104.05218191209616 344.0,103.27808039068368 345.6,102.48658405334334 347.20000000000005,101.67749962434259 348.80000000000007,100.85063382794891 350.40000000000003,100.00579338842974 352.0,99.14278503005258 353.6000000000001,98.26141547708488 355.20000000000005,97.3614914537941 356.8,96.44281968444778 358.4,95.50520689331327 360.0,94.54845980465814 360.0,109.5747558226897 358.4,110.53150291134483 356.8,111.46911570247933 355.20000000000005,112.38778747182567 353.6000000000001,113.28771149511644 352.0,114.16908104808414 350.40000000000003,115.0320894064613 348.80000000000007,115.87692984598046 347.20000000000005,116.70379564237413 345.6,117.5128800713749 344.0,118.30437640871523 342.40000000000003,119.0784779301277 340.8,119.83537791134484 339.20000000000005,120.57526962809916 337.6,121.29834635612319 336.0,122.00480137114948 334.40000000000003,122.69482794891056 332.8,123.36861936513897 331.20000000000005,124.02636889556723 329.6,124.66826981592784 328.0,125.29451540195342 326.4,125.9052989293764 324.8,126.50081367392934 323.2,127.08125291134483 321.6000000000001,127.64680991735537 320.0,128.19767796769344 318.4,128.73405033809163 316.8,129.25612030428246 315.2,129.76408114199847 313.6000000000001,130.25812612697217 312.0,130.7384485349361 310.40000000000003,131.20524164162282 308.80000000000007,131.65869872276483 307.2,132.09901305409466 305.6,132.52637791134484 304.0,132.9409865702479 302.40000000000003,133.34303230653643 300.8,133.7327083959429 299.2,134.11020811419982 297.6,134.47572473703983 296.0,134.82945154019532 294.4,135.17158179939892 292.8,135.50230879038315 291.19999999999993,135.82182578888052 289.6,136.1303260706236 288.0,136.42800291134483 286.4,136.71504958677684 284.8,136.99165937265212 283.20000000000005,137.25802554470323 281.6,137.51434137866266 280.0,137.76080015026298 278.4,137.99759513523665 276.8,138.2249196093163 275.20000000000005,138.4429668482344 273.6,138.65193012772352 272.0,138.85200272351614 270.4,139.04337791134483 268.80000000000007,139.22624896694214 267.20000000000005,139.40080916604055 265.6,139.56725178437262 264.0,139.7257700976709 262.4,139.8765573816679 260.8,140.01980691209616 259.20000000000005,140.15571196468818 257.6,140.28446581517656 256.0,140.40626173929377 254.4,140.52129301277233 252.8,140.62975291134484 251.19999999999996,140.73183471074378 249.60000000000002,140.82773168670172 248.0,140.91763711495116 246.4,141.00174427122462 244.8,141.0802464312547 243.20000000000002,141.15333687077384 241.60000000000002,141.22120886551465 240.0,141.2840556912096 238.4,141.34207062359127 236.8,141.39544693839218 235.20000000000002,141.44437791134482 233.60000000000002,141.48905681818178 232.0,141.5296769346356 230.4,141.56643153643876 228.80000000000004,141.59951389932382 227.20000000000002,141.62911729902328 225.6,141.65543501126973 224.0,141.67866031179562 222.40000000000003,141.69898647633357 220.80000000000004,141.71660678061608 219.2,141.73171450037566 217.6,141.74450291134485 216.00000000000003,141.75516528925618 214.40000000000003,141.76389490984224 212.8,141.77088504883545 211.2,141.77632898196842 209.60000000000002,141.78041998497372 208.0,141.78335133358377 206.4,141.78531630353118 204.8,141.78650817054844 203.20000000000002,141.78712021036813 201.60000000000002,141.78734569872276 200.0,141.78737791134483 198.4,141.78741012396694 196.80000000000004,141.78763561232157 195.20000000000002,141.78824765214122 193.60000000000002,141.78943951915852 192.0,141.7914044891059 190.4,141.794335837716 188.8,141.79842684072125 187.20000000000002,141.80387077385424 185.6,141.8108609128475 184.0,141.8195905334335 182.4,141.83025291134487 180.80000000000004,141.84304132231404 179.2,141.85814904207362 177.6,141.87576934635612 176.0,141.89609551089404 174.40000000000003,141.91932081142 172.8,141.9456385236664 171.20000000000002,141.9752419233659 169.6,142.0083242862509 168.0,142.0450788880541 166.4,142.0856990045079 164.8,142.13037791134485 163.2,142.17930888429748 161.60000000000002,142.2326851990984 160.0,142.2907001314801 158.4,142.353546957175 156.8,142.42141895191583 155.2,142.494509391435 153.60000000000002,142.57301155146504 152.0,142.6571187077385 150.4,142.74702413598797 148.8,142.84292111194588 147.2,142.94500291134483 145.59999999999997,143.05346280991733 144.0,143.16849408339596 142.4,143.29029000751314 140.8,143.4190438580015 139.2,143.5549489105935 137.60000000000002,143.69819844102176 136.0,143.84898572501876 134.4,144.00750403831705 132.8,144.17394665664912 131.20000000000002,144.34850685574753 129.6,144.53137791134486 128.0,144.72275309917353 126.39999999999999,144.92282569496618 124.80000000000001,145.13178897445528 123.19999999999999,145.3498362133734 121.60000000000001,145.57716068745302 120.0,145.81395567242674 118.39999999999999,146.06041444402706 116.80000000000001,146.3167302779865 115.19999999999999,146.58309645003754 113.60000000000001,146.85970623591282 112.0,147.14675291134483 110.39999999999999,147.4444297520661 108.8,147.75293003380915 107.19999999999999,148.0724470323065 105.60000000000001,148.40317402329075 104.0,148.74530428249437 102.39999999999999,149.09903108564987 100.80000000000001,149.46454770848987 99.19999999999999,149.84204742674677 97.6,150.23172351615327 96.0,150.63376925244177 94.4,151.04837791134483 92.79999999999998,151.47574276859504 91.19999999999999,151.91605709992484 89.6,152.36951418106685 88.0,152.83630728775358 86.39999999999999,153.3166296957175 84.8,153.8106746806912 83.19999999999999,154.3186355184072 81.6,154.84070548459803 80.0,155.37707785499623 78.39999999999999,155.92794590533433 76.80000000000001,156.49350291134485 75.19999999999999,157.07394214876032 73.6,157.66945689331328 72.0,158.28024042073628 70.4,158.90648600676184 68.79999999999998,159.54838692712246 67.19999999999999,160.2061364575507 65.6,160.8799278737791 64.0,161.56995445154016 62.400000000000006,162.2764094665665 60.79999999999998,162.99948619459053 59.19999999999999,163.73937791134483 57.599999999999994,164.49627789256198 56.0,165.27037941397444 54.400000000000006,166.0618757513148 52.79999999999998,166.87096018031556 51.19999999999999,167.69782597670923 49.599999999999994,168.5426664162284 48.0,169.40567477460556 46.39999999999998,170.28704432757326 44.79999999999998,171.18696835086402 43.19999999999999,172.10564012021035 41.599999999999994,173.04325291134484 40.0,174.0 " />
 <polygon fill="blue" stroke="none" stroke-width="0" fill-opacity="0.2" points="40.0,59.1427498121713 41.599999999999994,60.63786626596543 43.19999999999999,62.117956423741525 44.79999999999998,63.5830202854996 46.39999999999998,65.03305785123965 48.0,66.46806912096167 49.599999999999994,67.88805409466565 51.19999999999999,69.29301277235162 52.79999999999998,70.6829451540195 54.400000000000006,72.05785123966942 56.0,73.41773102930128 57.599999999999994,74.76258452291508 59.19999999999999,76.09241172051088 60.79999999999998,77.40721262208864 62.400000000000006,78.70698722764837 64.0,79.99173553719008 65.6,81.26145755071374 67.19999999999999,82.51615326821936 68.79999999999998,83.75582268970695 70.4,84.98046581517654 72.0,86.19008264462809 73.6,87.3846731780616 75.19999999999999,88.56423741547705 76.80000000000001,89.72877535687451 78.39999999999999,90.87828700225393 80.0,92.01277235161533 81.6,93.13223140495866 83.19999999999999,94.23666416228399 84.8,95.32607062359128 86.39999999999999,96.40045078888052 88.0,97.45980465815177 89.6,98.50413223140495 91.19999999999999,99.5334335086401 92.79999999999998,100.54770848985724 94.4,101.54695717505632 96.0,102.5311795642374 97.6,103.50037565740043 99.19999999999999,104.45454545454544 100.80000000000001,105.3936889556724 102.39999999999999,106.31780616078134 104.0,107.22689706987227 105.60000000000001,108.12096168294514 107.19999999999999,108.99999999999999 108.8,109.8640120210368 110.39999999999999,110.71299774605559 112.0,111.54695717505633 113.60000000000001,112.36589030803904 115.19999999999999,113.16979714500374 116.80000000000001,113.9586776859504 118.39999999999999,114.73253193087902 120.0,115.49135987978961 121.60000000000001,116.23516153268218 123.19999999999999,116.9639368895567 124.80000000000001,117.6776859504132 126.39999999999999,118.37640871525166 128.0,119.06010518407213 129.6,119.72877535687452 131.20000000000002,120.38241923365888 132.8,121.02103681442522 134.4,121.64462809917354 136.0,122.25319308790382 137.60000000000002,122.84673178061605 139.2,123.42524417731028 140.8,123.98873027798648 142.4,124.53719008264461 144.0,125.07062359128473 145.59999999999997,125.58903080390681 147.2,126.0924117205109 148.8,126.5807663410969 150.4,127.0540946656649 152.0,127.51239669421489 153.60000000000002,127.95567242674677 155.2,128.3839218632607 156.8,128.79714500375655 158.4,129.1953418482344 160.0,129.5785123966942 161.60000000000002,129.94665664913597 163.2,130.29977460555972 164.8,130.63786626596544 166.4,130.96093163035312 168.0,131.26897069872274 169.6,131.56198347107437 171.20000000000002,131.83996994740795 172.8,132.10293012772354 174.40000000000003,132.35086401202102 176.0,132.5837716003005 177.6,132.80165289256198 179.2,133.0045078888054 180.80000000000004,133.1923365890308 182.4,133.36513899323813 184.0,133.5229151014275 185.6,133.6656649135988 187.20000000000002,133.79338842975204 188.8,133.9060856498873 190.4,134.0037565740045 192.0,134.08640120210367 193.60000000000002,134.1540195341848 195.20000000000002,134.2066115702479 196.80000000000004,134.24417731029303 198.4,134.26671675432004 200.0,134.27422990232907 201.60000000000002,134.26671675432004 203.20000000000002,134.24417731029303 204.8,134.2066115702479 206.4,134.1540195341848 208.0,134.08640120210367 209.60000000000002,134.0037565740045 211.2,133.9060856498873 212.8,133.79338842975204 214.40000000000003,133.6656649135988 216.00000000000003,133.5229151014275 217.6,133.36513899323813 219.2,133.1923365890308 220.80000000000004,133.0045078888054 222.40000000000003,132.80165289256198 224.0,132.5837716003005 225.6,132.35086401202102 227.20000000000002,132.10293012772354 228.80000000000004,131.83996994740795 230.4,131.56198347107437 232.0,131.26897069872274 233.60000000000002,130.96093163035312 235.20000000000002,130.63786626596544 236.8,130.29977460555972 238.4,129.94665664913597 240.0,129.5785123966942 241.60000000000002,129.1953418482344 243.20000000000002,128.79714500375655 244.8,128.3839218632607 246.4,127.95567242674677 248.0,127.51239669421489 249.60000000000002,127.0540946656649 251.19999999999996,126.5807663410969 252.8,126.0924117205109 254.4,125.58903080390681 256.0,125.07062359128473 257.6,124.53719008264461 259.20000000000005,123.98873027798648 260.8,123.42524417731028 262.4,122.84673178061605 264.0,122.25319308790382 265.6,121.64462809917354 267.20000000000005,121.02103681442522 268.80000000000007,120.38241923365888 270.4,119.72877535687452 272.0,119.06010518407213 273.6,118.37640871525166 275.20000000000005,117.6776859504132 276.8,116.9639368895567 278.4,116.23516153268218 280.0,115.49135987978961 281.6,114.73253193087902 283.20000000000005,113.9586776859504 284.8,113.16979714500374 286.4,112.36589030803904 288.0,111.54695717505633 289.6,110.71299774605559 291.19999999999993,109.8640120210368 292.8,108.99999999999999 294.4,108.12096168294514 296.0,107.22689706987227 297.6,106.31780616078134 299.2,105.3936889556724 300.8,104.45454545454544 302.40000000000003,103.50037565740043 304.0,102.5311795642374 305.6,101.54695717505632 307.2,100.54770848985724 308.80000000000007,99.5334335086401 310.40000000000003,98.50413223140495 312.0,97.45980465815177 313.6000000000001,96.40045078888052 315.2,95.32607062359128 316.8,94.23666416228399 318.4,93.13223140495866 320.0,92.01277235161533 321.6000000000001,90.87828700225393 323.2,89.72877535687451 324.8,88.56423741547705 326.4,87.3846731780616 328.0,86.19008264462809 329.6,84.98046581517654 331.20000000000005,83.75582268970695 332.8,82.51615326821936 334.40000000000003,81.26145755071374 336.0,79.99173553719008 337.6,78.70698722764837 339.20000000000005,77.40721262208864 340.8,76.09241172051088 342.40000000000003,74.76258452291508 344.0,73.41773102930128 345.6,72.05785123966942 347.20000000000005,70.6829451540195 348.80000000000007,69.29301277235162 350.40000000000003,67.88805409466565 352.0,66.46806912096167 353.6000000000001,65.03305785123965 355.20000000000005,63.5830202854996 356.8,62.117956423741525 358.4,60.63786626596543 360.0,59.1427498121713 360.0,59.1427498121713 358.4,60.63786626596543 356.8,62.117956423741525 355.20000000000005,63.5830202854996 353.6000000000001,65.03305785123965 352.0,66.46806912096167 350.40000000000003,67.88805409466565 348.80000000000007,69.29301277235162 347.20000000000005,70.6829451540195 345.6,72.05785123966942 344.0,73.41773102930128 342.40000000000003,74.76258452291508 340.8,76.09241172051088 339.20000000000005,77.40721262208864 337.6,78.70698722764837 336.0,79.99173553719008 334.40000000000003,81.26145755071374 332.8,82.51615326821936 331.20000000000005,83.75582268970695 329.6,84.98046581517654 328.0,86.19008264462809 326.4,87.3846731780616 324.8,88.56423741547705 323.2,89.72877535687451 321.6000000000001,90.87828700225393 320.0,92.01277235161533 318.4,93.13223140495866 316.8,94.23666416228399 315.2,95.32607062359128 313.6000000000001,96.40045078888052 312.0,97.45980465815177 310.40000000000003,98.50413223140495 308.80000000000007,99.5334335086401 307.2,100.54770848985724 305.6,101.54695717505632 304.0,102.5311795642374 302.40000000000003,103.50037565740043 300.8,104.45454545454544 299.2,105.3936889556724 297.6,106.31780616078134 296.0,107.22689706987227 294.4,108.12096168294514 292.8,108.99999999999999 291.19999999999993,109.8640120210368 289.6,110.71299774605559 288.0,111.54695717505633 286.4,112.36589030803904 284.8,113.16979714500374 283.20000000000005,113.9586776859504 281.6,114.73253193087902 280.0,115.49135987978961 278.4,116.23516153268218 276.8,116.9639368895567 275.20000000000005,117.6776859504132 273.6,118.37640871525166 272.0,119.06010518407213 270.4,119.72877535687452 268.80000000000007,120.38241923365888 267.20000000000005,121.02103681442522 265.6,121.64462809917354 264.0,122.25319308790382 262.4,122.84673178061605 260.8,123.42524417731028 259.20000000000005,123.98873027798648 257.6,124.53719008264461 256.0,125.07062359128473 254.4,125.58903080390681 252.8,126.0924117205109 251.19999999999996,126.5807663410969 249.60000000000002,127.0540946656649 248.0,127.51239669421489 246.4,127.95567242674677 244.8,128.3839218632607 243.20000000000002,128.79714500375655 241.60000000000002,129.1953418482344 240.0,129.5785123966942 238.4,129.94665664913597 236.8,130.29977460555972 235.20000000000002,130.63786626596544 233.60000000000002,130.96093163035312 232.0,131.26897069872274 230.4,131.56198347107437 228.80000000000004,131.83996994740795 227.20000000000002,132.10293012772354 225.6,132.35086401202102 224.0,132.5837716003005 222.40000000000003,132.80165289256198 220.80000000000004,133.0045078888054 219.2,133.1923365890308 217.6,133.36513899323813 216.00000000000003,133.5229151014275 214.40000000000003,133.6656649135988 212.8,133.79338842975204 211.2,133.9060856498873 209.60000000000002,134.0037565740045 208.0,134.08640120210367 206.4,134.1540195341848 204.8,134.2066115702479 203.20000000000002,134.24417731029303 201.60000000000002,134.26671675432004 200.0,134.27422990232907 198.4,134.26671675432004 196.80000000000004,134.24417731029303 195.20000000000002,134.2066115702479 193.60000000000002,134.1540195341848 192.0,134.08640120210367 190.4,134.0037565740045 188.8,133.9060856498873 187.20000000000002,133.79338842975204 185.6,133.6656649135988 184.0,133.5229151014275 182.4,133.36513899323813 180.80000000000004,133.1923365890308 179.2,133.0045078888054 177.6,132.80165289256198 176.0,132.5837716003005 174.40000000000003,132.35086401202102 172.8,132.10293012772354 171.20000000000002,131.83996994740795 169.6,131.56198347107437 168.0,131.26897069872274 166.4,130.96093163035312 164.8,130.63786626596544 163.2,130.29977460555972 161.60000000000002,129.94665664913597 160.0,129.5785123966942 158.4,129.1953418482344 156.8,128.79714500375655 155.2,128.3839218632607 153.60000000000002,127.95567242674677 152.0,127.51239669421489 150.4,127.0540946656649 148.8,126.5807663410969 147.2,126.0924117205109 145.59999999999997,125.58903080390681 144.0,125.07062359128473 142.4,124.53719008264461 140.8,123.98873027798648 139.2,123.42524417731028 137.60000000000002,122.84673178061605 136.0,122.25319308790382 134.4,121.64462809917354 132.8,121.02103681442522 131.20000000000002,120.38241923365888 129.6,119.72877535687452 128.0,119.06010518407213 126.39999999999999,118.37640871525166 124.80000000000001,117.6776859504132 123.19999999999999,116.9639368895567 121.60000000000001,116.23516153268218 120.0,115.49135987978961 118.39999999999999,114.73253193087902 116.80000000000001,113.9586776859504 115.19999999999999,113.16979714500374 113.60000000000001,112.36589030803904 112.0,111.54695717505633 110.39999999999999,110.71299774605559 108.8,109.8640120210368 107.19999999999999,108.99999999999999 105.60000000000001,108.12096168294514 104.0,107.22689706987227 102.39999999999999,106.31780616078134 100.80000000000001,105.3936889556724 99.19999999999999,104.45454545454544 97.6,103.50037565740043 96.0,102.5311795642374 94.4,101.54695717505632 92.79999999999998,100.54770848985724 91.19999999999999,99.5334335086401 89.6,98.50413223140495 88.0,97.45980465815177 86.39999999999999,96.40045078888052 84.8,95.32607062359128 83.19999999999999,94.23666416228399 81.6,93.13223140495866 80.0,92.01277235161533 78.39999999999999,90.87828700225393 76.80000000000001,89.72877535687451 75.19999999999999,88.56423741547705 73.6,87.3846731780616 72.0,86.19008264462809 70.4,84.98046581517654 68.79999999999998,83.75582268970695 67.19999999999999,82.51615326821936 65.6,81.26145755071374 64.0,79.99173553719008 62.400000000000006,78.70698722764837 60.79999999999998,77.40721262208864 59.19999999999999,76.09241172051088 57.599999999999994,74.76258452291508 56.0,73.41773102930128 54.400000000000006,72.05785123966942 52.79999999999998,70.6829451540195 51.19999999999999,69.29301277235162 49.599999999999994,67.88805409466565 48.0,66.46806912096167 46.39999999999998,65.03305785123965 44.79999999999998,63.5830202854996 43.19999999999999,62.117956423741525 41.599999999999994,60.63786626596543 40.0,59.1427498121713 " />
 <polygon fill="red" stroke="none" stroke-width="0" fill-opacity="0.2" points="40.0,129.5409466566491 41.599999999999994,121.72727272727272 43.19999999999999,122.70398196844475 44.79999999999998,123.68069120961682 46.39999999999998,124.65740045078886 48.0,125.63410969196092 49.599999999999994,125.63410969196092 51.19999999999999,126.61081893313298 52.79999999999998,126.61081893313298 54.400000000000006,127.58752817430502 56.0,127.58752817430502 57.599999999999994,127.58752817430502 59.19999999999999,128.56423741547707 60.79999999999998,128.56423741547707 62.400000000000006,128.56423741547707 64.0,129.5409466566491 65.6,129.5409466566491 67.19999999999999,129.5409466566491 68.79999999999998,129.5409466566491 70.4,129.5409466566491 72.0,129.5409466566491 73.6,121.72727272727272 75.19999999999999,122.70398196844475 76.80000000000001,123.68069120961682 78.39999999999999,124.65740045078886 80.0,125.63410969196092 81.6,126.61081893313298 83.19999999999999,126.61081893313298 84.8,127.58752817430502 86.39999999999999,127.58752817430502 88.0,128.56423741547707 89.6,128.56423741547707 91.19999999999999,128.56423741547707 92.79999999999998,129.5409466566491 94.4,129.5409466566491 96.0,129.5409466566491 97.6,129.5409466566491 99.19999999999999,121.72727272727272 100.80000000000001,122.70398196844475 102.39999999999999,123.68069120961682 104.0,124.65740045078886 105.60000000000001,125.63410969196092 107.19999999999999,126.61081893313298 108.8,127.58752817430502 110.39999999999999,127.58752817430502 112.0,128.56423741547707 113.60000000000001,128.56423741547707 115.19999999999999,129.5409466566491 116.80000000000001,129.5409466566491 118.39999999999999,129.5409466566491 120.0,121.72727272727272 121.60000000000001,123.68069120961682 123.19999999999999,124.65740045078886 124.80000000000001,125.63410969196092 126.39999999999999,126.61081893313298 128.0,127.58752817430502 129.6,128.56423741547707 131.20000000000002,128.56423741547707 132.8,129.5409466566491 134.4,129.5409466566491 136.0,129.5409466566491 137.60000000000002,122.70398196844475 139.2,124.65740045078886 140.8,126.61081893313298 142.4,127.58752817430502 144.0,128.56423741547707 145.59999999999997,128.56423741547707 147.2,129.5409466566491 148.8,129.5409466566491 150.4,122.70398196844475 152.0,125.63410969196092 153.60000000000002,126.61081893313298 155.2,128.56423741547707 156.8,128.56423741547707 158.4,129.5409466566491 160.0,121.72727272727272 161.60000000000002,124.65740045078886 163.2,126.61081893313298 164.8,128.56423741547707 166.4,129.5409466566491 168.0,129.5409466566491 169.6,124.65740045078886 171.20000000000002,127.58752817430502 172.8,128.56423741547707 174.40000000000003,129.5409466566491 176.0,125.63410969196092 177.6,128.56423741547707 179.2,129.5409466566491 180.80000000000004,124.65740045078886 182.4,128.56423741547707 184.0,129.5409466566491 185.6,127.58752817430502 187.20000000000002,129.5409466566491 188.8,128.56423741547707 190.4,124.65740045078886 192.0,121.72727272727272 193.60000000000002,129.5409466566491 195.20000000000002,125.63410969196092 196.80000000000004,129.5409466566491 198.4,129.5409466566491 200.0,130.5176558978212 201.60000000000002,129.5311795642374 203.20000000000002,129.50187828700223 204.8,125.54620586025543 206.4,129.3846731780616 208.0,121.48309541697971 209.60000000000002,124.30578512396693 211.2,128.08564988730276 212.8,128.91585274229902 214.40000000000003,126.79639368895566 216.00000000000003,128.56423741547707 217.6,127.3824192336589 219.2,123.2509391435011 220.80000000000004,127.89030803906834 222.40000000000003,126.64988730277986 224.0,123.43651389932378 225.6,127.04057099924867 227.20000000000002,125.74154770848985 228.80000000000004,124.42299023290758 230.4,121.13148009015777 232.0,125.63410969196092 233.60000000000002,125.2336589030804 235.20000000000002,123.83696468820435 236.8,121.44402704733281 238.4,119.03155522163786 240.0,115.62283996994739 241.60000000000002,122.93839218632606 243.20000000000002,121.44402704733281 244.8,120.9068369646882 246.4,118.39669421487604 248.0,116.84372652141246 249.60000000000002,113.31780616078136 251.19999999999996,119.53944402704731 252.8,118.90458302028547 254.4,117.27347858752817 256.0,116.59954921111944 257.6,114.92937640871524 259.20000000000005,113.23966942148759 260.8,110.55371900826445 262.4,107.84823441021787 264.0,113.9135987978963 265.6,113.12246431254694 267.20000000000005,112.31179564237415 268.80000000000007,110.50488354620585 270.4,109.65514650638617 272.0,107.80916604057099 273.6,105.94365138993236 275.20000000000005,104.05860255447031 276.8,102.15401953418481 278.4,100.22990232907588 280.0,97.30954169797143 281.6,104.13673929376405 283.20000000000005,103.13072877535684 284.8,102.1051840721262 286.4,100.08339594290007 288.0,99.01878287002253 289.6,96.95792637114948 291.19999999999993,95.85424492862508 292.8,93.75432006010517 294.4,91.63486100676182 296.0,89.49586776859503 297.6,87.33734034560479 299.2,85.15927873779111 300.8,82.961682945154 302.40000000000003,89.5349361382419 304.0,88.27498121712996 305.6,86.99549211119458 307.2,85.69646882043574 308.80000000000007,83.40120210368141 310.40000000000003,82.06311044327572 312.0,80.70548459804657 313.6000000000001,78.3516153268219 315.2,76.95492111194588 316.8,74.56198347107434 318.4,73.12622088655144 320.0,70.69421487603304 321.6000000000001,68.24267468069118 323.2,65.7716003005259 324.8,63.280991735537185 326.4,60.770848985724996 328.0,67.03155522163786 329.6,65.45905334335086 331.20000000000005,63.86701728024039 332.8,62.25544703230652 334.40000000000003,60.6243425995492 336.0,58.97370398196843 337.6,56.326821938392186 339.20000000000005,54.637114951164534 340.8,52.927873779113405 342.40000000000003,50.22238918106683 344.0,48.47407963936888 345.6,46.706235912847475 347.20000000000005,43.942148760330554 348.80000000000007,42.135236664162264 350.40000000000003,39.33208114199845 352.0,37.486100676183334 353.6000000000001,34.6438767843726 355.20000000000005,31.78211870773852 356.8,28.90082644628094 358.4,26.0 360.0,31.87002253944401 360.0,103.84598046581516 358.4,101.58827948910593 356.8,102.70398196844475 355.20000000000005,103.81217129977459 353.6000000000001,104.91284748309539 352.0,106.0060105184072 350.40000000000003,106.71600300525918 348.80000000000007,107.79413974455295 347.20000000000005,108.4891059353869 345.6,109.55221637866266 344.0,110.23215627347858 342.40000000000003,110.90458302028549 340.8,111.94515401953417 339.20000000000005,112.60255447032306 337.6,113.25244177310292 336.0,114.27047332832454 334.40000000000003,114.9053343350864 332.8,115.53268219383921 331.20000000000005,116.152516904583 329.6,116.7648384673178 328.0,117.36964688204355 326.4,114.96168294515401 324.8,115.92712246431252 323.2,116.88504883546204 321.6000000000001,117.83546205860254 320.0,118.778362133734 318.4,119.71374906085649 316.8,120.26596543951915 315.2,121.18632607062356 313.6000000000001,121.72351615326819 312.0,122.62885048835462 310.40000000000003,123.1510142749812 308.80000000000007,123.66566491359879 307.2,124.54845980465814 305.6,125.04808414725768 304.0,125.54019534184823 302.40000000000003,126.02479338842974 300.8,123.49661908339591 299.2,124.34184823441021 297.6,125.17956423741546 296.0,126.00976709241172 294.4,126.83245679939891 292.8,127.64763335837715 291.19999999999993,128.45529676934635 289.6,128.87978963185572 288.0,129.67242674680688 286.4,130.08189331329828 284.8,130.8595041322314 283.20000000000005,131.25394440270475 281.6,131.64087152516902 280.0,129.01502629601802 278.4,130.13824192336588 276.8,130.87828700225393 275.20000000000005,131.61081893313298 273.6,132.335837716003 272.0,133.053343350864 270.4,133.763335837716 268.80000000000007,134.09015777610819 267.20000000000005,134.78512396694214 265.6,135.09691960931627 264.0,135.40120210368144 262.4,133.06836964688202 260.8,134.1089406461307 259.20000000000005,135.1419984973704 257.6,135.79188580015023 256.0,136.43425995492112 254.4,136.69346356123214 252.8,137.32081141998498 251.19999999999996,137.56498873027797 249.60000000000002,135.17205108940647 248.0,136.52817430503382 246.4,137.12546957175056 244.8,138.09090909090907 243.20000000000002,138.29752066115702 241.60000000000002,138.87227648384675 240.0,136.05860255447033 238.4,137.36964688204358 236.8,138.29752066115702 235.20000000000002,139.21788129226144 233.60000000000002,139.75507137490607 232.0,139.9090909090909 230.4,138.17731029301277 228.80000000000004,139.4432757325319 227.20000000000002,139.9504132231405 225.6,140.45003756574005 224.0,139.0638617580766 222.40000000000003,140.29977460555972 220.80000000000004,140.77685950413223 219.2,138.99248685199098 217.6,140.5815176558978 216.00000000000003,141.03606311044325 214.40000000000003,140.35612321562732 212.8,141.17129977460556 211.2,140.85199098422237 209.60000000000002,139.3981968444778 208.0,138.31254695717504 206.4,141.35161532682196 204.8,139.87528174305032 203.20000000000002,141.39669421487602 201.60000000000002,141.40796393688953 200.0,141.78737791134483 198.4,141.41172051089404 196.80000000000004,141.41172051089404 195.20000000000002,139.9090909090909 193.60000000000002,141.41172051089404 192.0,138.40646130728774 190.4,139.53343350864014 188.8,141.03606311044325 187.20000000000002,141.41172051089404 185.6,140.66040570999246 184.0,141.41172051089404 182.4,141.03606311044325 180.80000000000004,139.53343350864014 179.2,141.41172051089404 177.6,141.03606311044325 176.0,139.9090909090909 174.40000000000003,141.41172051089404 172.8,141.03606311044325 171.20000000000002,140.66040570999246 169.6,139.53343350864014 168.0,141.41172051089404 166.4,141.41172051089404 164.8,141.03606311044325 163.2,140.28474830954167 161.60000000000002,139.53343350864014 160.0,138.40646130728774 158.4,141.41172051089404 156.8,141.03606311044325 155.2,141.03606311044325 153.60000000000002,140.28474830954167 152.0,139.9090909090909 150.4,138.7821187077385 148.8,141.41172051089404 147.2,141.41172051089404 145.59999999999997,141.03606311044325 144.0,141.03606311044325 142.4,140.66040570999246 140.8,140.28474830954167 139.2,139.53343350864014 137.60000000000002,138.7821187077385 136.0,141.41172051089404 134.4,141.41172051089404 132.8,141.41172051089404 131.20000000000002,141.03606311044325 129.6,141.03606311044325 128.0,140.66040570999246 126.39999999999999,140.28474830954167 124.80000000000001,139.9090909090909 123.19999999999999,139.53343350864014 121.60000000000001,139.15777610818932 120.0,138.40646130728774 118.39999999999999,141.41172051089404 116.80000000000001,141.41172051089404 115.19999999999999,141.41172051089404 113.60000000000001,141.03606311044325 112.0,141.03606311044325 110.39999999999999,140.66040570999246 108.8,140.66040570999246 107.19999999999999,140.28474830954167 105.60000000000001,139.9090909090909 104.0,139.53343350864014 102.39999999999999,139.15777610818932 100.80000000000001,138.7821187077385 99.19999999999999,138.40646130728774 97.6,141.41172051089404 96.0,141.41172051089404 94.4,141.41172051089404 92.79999999999998,141.41172051089404 91.19999999999999,141.03606311044325 89.6,141.03606311044325 88.0,141.03606311044325 86.39999999999999,140.66040570999246 84.8,140.66040570999246 83.19999999999999,140.28474830954167 81.6,140.28474830954167 80.0,139.9090909090909 78.39999999999999,139.53343350864014 76.80000000000001,139.15777610818932 75.19999999999999,138.7821187077385 73.6,138.40646130728774 72.0,141.41172051089404 70.4,141.41172051089404 68.79999999999998,141.41172051089404 67.19999999999999,141.41172051089404 65.6,141.41172051089404 64.0,141.41172051089404 62.400000000000006,141.03606311044325 60.79999999999998,141.03606311044325 59.19999999999999,141.03606311044325 57.599999999999994,140.66040570999246 56.0,140.66040570999246 54.400000000000006,140.66040570999246 52.79999999999998,140.28474830954167 51.19999999999999,140.28474830954167 49.599999999999994,139.9090909090909 48.0,139.9090909090909 46.39999999999998,139.53343350864014 44.79999999999998,139.15777610818932 43.19999999999999,138.7821187077385 41.599999999999994,138.40646130728774 40.0,141.41172051089404 " />
 
    <polyline fill="none" stroke="black" stroke-width="1" points="40.0,166.48685199098423 41.599999999999994,165.53010490232907 43.19999999999999,164.59249211119456 44.79999999999998,163.67382034184823 46.39999999999998,162.7738963185575 48.0,161.89252676558976 49.599999999999994,161.0295184072126 51.19999999999999,160.18467796769343 52.79999999999998,159.35781217129977 54.400000000000006,158.548727742299 56.0,157.75723140495867 57.599999999999994,156.98312988354618 59.19999999999999,156.22622990232907 60.79999999999998,155.48633818557474 62.400000000000006,154.7632614575507 64.0,154.0568064425244 65.6,153.36677986476332 67.19999999999999,152.69298844853495 68.79999999999998,152.0352389181067 70.4,151.39333799774604 72.0,150.7670924117205 73.6,150.15630888429752 75.19999999999999,149.56079413974456 76.80000000000001,148.98035490232905 78.39999999999999,148.41479789631853 80.0,147.86392984598046 81.6,147.32755747558227 83.19999999999999,146.8054875093914 84.8,146.29752667167543 86.39999999999999,145.8034816867017 88.0,145.3231592787378 89.6,144.85636617205108 91.19999999999999,144.40290909090908 92.79999999999998,143.96259475957925 94.4,143.53522990232906 96.0,143.120621243426 97.6,142.71857550713747 99.19999999999999,142.328899417731 100.80000000000001,141.95139969947408 102.39999999999999,141.5858830766341 104.0,141.23215627347855 105.60000000000001,140.89002601427498 107.19999999999999,140.55929902329075 108.8,140.23978202479339 110.39999999999999,139.93128174305036 112.0,139.63360490232907 113.60000000000001,139.34655822689706 115.19999999999999,139.06994844102178 116.80000000000001,138.80358226897067 118.39999999999999,138.54726643501127 120.0,138.30080766341098 121.60000000000001,138.06401267843722 123.19999999999999,137.8366882043576 124.80000000000001,137.6186409654395 126.39999999999999,137.40967768595038 128.0,137.20960509015777 129.6,137.01822990232904 131.20000000000002,136.83535884673176 132.8,136.66079864763333 134.4,136.4943560293013 136.0,136.335837716003 137.60000000000002,136.185050432006 139.2,136.04180090157774 140.8,135.90589584898572 142.4,135.77714199849737 144.0,135.65534607438013 145.59999999999997,135.54031480090157 147.2,135.43185490232906 148.8,135.32977310293012 150.4,135.2338761269722 152.0,135.14397069872274 153.60000000000002,135.05986354244928 155.2,134.9813613824192 156.8,134.90827094290006 158.4,134.84039894815925 160.0,134.7775521224643 161.60000000000002,134.71953719008263 163.2,134.66616087528172 164.8,134.6172299023291 166.4,134.5725509954921 168.0,134.53193087903833 169.6,134.49517627723515 171.20000000000002,134.46209391435008 172.8,134.43249051465062 174.40000000000003,134.4061728024042 176.0,134.38294750187828 177.6,134.36262133734033 179.2,134.34500103305783 180.80000000000004,134.32989331329827 182.4,134.31710490232905 184.0,134.30644252441772 185.6,134.29771290383167 187.20000000000002,134.29072276483845 188.8,134.28527883170545 190.4,134.28118782870018 192.0,134.27825648009016 193.60000000000002,134.27629151014273 195.20000000000002,134.27509964312543 196.80000000000004,134.27448760330577 198.4,134.27426211495114 200.0,134.27422990232907 201.60000000000002,134.27419768970697 203.20000000000002,134.27397220135236 204.8,134.27336016153268 206.4,134.27216829451538 208.0,134.270203324568 209.60000000000002,134.2672719759579 211.2,134.26318097295265 212.8,134.2577370398197 214.40000000000003,134.25074690082644 216.00000000000003,134.2420172802404 217.6,134.23135490232906 219.2,134.21856649135987 220.80000000000004,134.20345877160028 222.40000000000003,134.1858384673178 224.0,134.16551230277983 225.6,134.14228700225394 227.20000000000002,134.1159692900075 228.80000000000004,134.086365890308 230.4,134.053283527423 232.0,134.0165289256198 233.60000000000002,133.97590880916601 235.20000000000002,133.93122990232905 236.8,133.8822989293764 238.4,133.8289226145755 240.0,133.7709076821938 241.60000000000002,133.70806085649886 243.20000000000002,133.64018886175808 244.8,133.5670984222389 246.4,133.48859626220886 248.0,133.4044891059354 249.60000000000002,133.31458367768596 251.19999999999996,133.21868670172802 252.8,133.11660490232907 254.4,133.00814500375657 256.0,132.89311373027795 257.6,132.77131780616077 259.20000000000005,132.64256395567241 260.8,132.50665890308036 262.4,132.36340937265214 264.0,132.2126220886551 265.6,132.05410377535685 267.20000000000005,131.88766115702478 268.80000000000007,131.71310095792637 270.4,131.53022990232907 272.0,131.33885471450037 273.6,131.13878211870772 275.20000000000005,130.92981883921863 276.8,130.7117716003005 278.4,130.48444712622089 280.0,130.24765214124716 281.6,130.00119336964687 283.20000000000005,129.74487753568744 284.8,129.47851136363636 286.4,129.20190157776108 288.0,128.91485490232907 289.6,128.6171780616078 291.19999999999993,128.30867777986475 292.8,127.98916078136737 294.4,127.65843379038314 296.0,127.31630353117956 297.6,126.96257672802403 299.2,126.59706010518406 300.8,126.2195603869271 302.40000000000003,125.82988429752065 304.0,125.42783856123214 305.6,125.01322990232906 307.2,124.58586504507889 308.80000000000007,124.14555071374905 310.40000000000003,123.69209363260705 312.0,123.22530052592036 313.6000000000001,122.74497811795642 315.2,122.25093313298272 316.8,121.74297229526671 318.4,121.22090232907587 320.0,120.68452995867767 321.6000000000001,120.13366190833958 323.2,119.56810490232907 324.8,118.98766566491358 326.4,118.3921509203606 328.0,117.78136739293761 329.6,117.15512180691208 331.20000000000005,116.51322088655144 332.8,115.8554713561232 334.40000000000003,115.1816799398948 336.0,114.49165336213373 337.6,113.78519834710741 339.20000000000005,113.06212161908337 340.8,112.32222990232906 342.40000000000003,111.56532992111191 344.0,110.79122839969943 345.6,109.9997320623591 347.20000000000005,109.19064763335835 348.80000000000007,108.36378183696466 350.40000000000003,107.5189413974455 352.0,106.65593303906837 353.6000000000001,105.77456348610066 355.20000000000005,104.8746394628099 356.8,103.95596769346356 358.4,103.01835490232907 360.0,102.0616078136739 " />
 <polyline fill="none" stroke="blue" stroke-width="1" points="40.0,59.1427498121713 41.599999999999994,60.63786626596543 43.19999999999999,62.117956423741525 44.79999999999998,63.5830202854996 46.39999999999998,65.03305785123965 48.0,66.46806912096167 49.599999999999994,67.88805409466565 51.19999999999999,69.29301277235162 52.79999999999998,70.6829451540195 54.400000000000006,72.05785123966942 56.0,73.41773102930128 57.599999999999994,74.76258452291508 59.19999999999999,76.09241172051088 60.79999999999998,77.40721262208864 62.400000000000006,78.70698722764837 64.0,79.99173553719008 65.6,81.26145755071374 67.19999999999999,82.51615326821936 68.79999999999998,83.75582268970695 70.4,84.98046581517654 72.0,86.19008264462809 73.6,87.3846731780616 75.19999999999999,88.56423741547705 76.80000000000001,89.72877535687451 78.39999999999999,90.87828700225393 80.0,92.01277235161533 81.6,93.13223140495866 83.19999999999999,94.23666416228399 84.8,95.32607062359128 86.39999999999999,96.40045078888052 88.0,97.45980465815177 89.6,98.50413223140495 91.19999999999999,99.5334335086401 92.79999999999998,100.54770848985724 94.4,101.54695717505632 96.0,102.5311795642374 97.6,103.50037565740043 99.19999999999999,104.45454545454544 100.80000000000001,105.3936889556724 102.39999999999999,106.31780616078134 104.0,107.22689706987227 105.60000000000001,108.12096168294514 107.19999999999999,108.99999999999999 108.8,109.8640120210368 110.39999999999999,110.71299774605559 112.0,111.54695717505633 113.60000000000001,112.36589030803904 115.19999999999999,113.16979714500374 116.80000000000001,113.9586776859504 118.39999999999999,114.73253193087902 120.0,115.49135987978961 121.60000000000001,116.23516153268218 123.19999999999999,116.9639368895567 124.80000000000001,117.6776859504132 126.39999999999999,118.37640871525166 128.0,119.06010518407213 129.6,119.72877535687452 131.20000000000002,120.38241923365888 132.8,121.02103681442522 134.4,121.64462809917354 136.0,122.25319308790382 137.60000000000002,122.84673178061605 139.2,123.42524417731028 140.8,123.98873027798648 142.4,124.53719008264461 144.0,125.07062359128473 145.59999999999997,125.58903080390681 147.2,126.0924117205109 148.8,126.5807663410969 150.4,127.0540946656649 152.0,127.51239669421489 153.60000000000002,127.95567242674677 155.2,128.3839218632607 156.8,128.79714500375655 158.4,129.1953418482344 160.0,129.5785123966942 161.60000000000002,129.94665664913597 163.2,130.29977460555972 164.8,130.63786626596544 166.4,130.96093163035312 168.0,131.26897069872274 169.6,131.56198347107437 171.20000000000002,131.83996994740795 172.8,132.10293012772354 174.40000000000003,132.35086401202102 176.0,132.5837716003005 177.6,132.80165289256198 179.2,133.0045078888054 180.80000000000004,133.1923365890308 182.4,133.36513899323813 184.0,133.5229151014275 185.6,133.6656649135988 187.20000000000002,133.79338842975204 188.8,133.9060856498873 190.4,134.0037565740045 192.0,134.08640120210367 193.60000000000002,134.1540195341848 195.20000000000002,134.2066115702479 196.80000000000004,134.24417731029303 198.4,134.26671675432004 200.0,134.27422990232907 201.60000000000002,134.26671675432004 203.20000000000002,134.24417731029303 204.8,134.2066115702479 206.4,134.1540195341848 208.0,134.08640120210367 209.60000000000002,134.0037565740045 211.2,133.9060856498873 212.8,133.79338842975204 214.40000000000003,133.6656649135988 216.00000000000003,133.5229151014275 217.6,133.36513899323813 219.2,133.1923365890308 220.80000000000004,133.0045078888054 222.40000000000003,132.80165289256198 224.0,132.5837716003005 225.6,132.35086401202102 227.20000000000002,132.10293012772354 228.80000000000004,131.83996994740795 230.4,131.56198347107437 232.0,131.26897069872274 233.60000000000002,130.96093163035312 235.20000000000002,130.63786626596544 236.8,130.29977460555972 238.4,129.94665664913597 240.0,129.5785123966942 241.60000000000002,129.1953418482344 243.20000000000002,128.79714500375655 244.8,128.3839218632607 246.4,127.95567242674677 248.0,127.51239669421489 249.60000000000002,127.0540946656649 251.19999999999996,126.5807663410969 252.8,126.0924117205109 254.4,125.58903080390681 256.0,125.07062359128473 257.6,124.53719008264461 259.20000000000005,123.98873027798648 260.8,123.42524417731028 262.4,122.84673178061605 264.0,122.25319308790382 265.6,121.64462809917354 267.20000000000005,121.02103681442522 268.80000000000007,120.38241923365888 270.4,119.72877535687452 272.0,119.06010518407213 273.6,118.37640871525166 275.20000000000005,117.6776859504132 276.8,116.9639368895567 278.4,116.23516153268218 280.0,115.49135987978961 281.6,114.73253193087902 283.20000000000005,113.9586776859504 284.8,113.16979714500374 286.4,112.36589030803904 288.0,111.54695717505633 289.6,110.71299774605559 291.19999999999993,109.8640120210368 292.8,108.99999999999999 294.4,108.12096168294514 296.0,107.22689706987227 297.6,106.31780616078134 299.2,105.3936889556724 300.8,104.45454545454544 302.40000000000003,103.50037565740043 304.0,102.5311795642374 305.6,101.54695717505632 307.2,100.54770848985724 308.80000000000007,99.5334335086401 310.40000000000003,98.50413223140495 312.0,97.45980465815177 313.6000000000001,96.40045078888052 315.2,95.32607062359128 316.8,94.23666416228399 318.4,93.13223140495866 320.0,92.01277235161533 321.6000000000001,90.87828700225393 323.2,89.72877535687451 324.8,88.56423741547705 326.4,87.3846731780616 328.0,86.19008264462809 329.6,84.98046581517654 331.20000000000005,83.75582268970695 332.8,82.51615326821936 334.40000000000003,81.26145755071374 336.0,79.99173553719008 337.6,78.70698722764837 339.20000000000005,77.40721262208864 340.8,76.09241172051088 342.40000000000003,74.76258452291508 344.0,73.41773102930128 345.6,72.05785123966942 347.20000000000005,70.6829451540195 348.80000000000007,69.29301277235162 350.40000000000003,67.88805409466565 352.0,66.46806912096167 353.6000000000001,65.03305785123965 355.20000000000005,63.5830202854996 356.8,62.117956423741525 358.4,60.63786626596543 360.0,59.1427498121713 " />
 <polyline fill="none" stroke="red" stroke-width="1" points="40.0,133.5229151014275 41.599999999999994,127.51239669421489 43.19999999999999,128.26371149511644 44.79999999999998,129.01502629601802 46.39999999999998,129.76634109691958 48.0,130.5176558978212 49.599999999999994,130.5176558978212 51.19999999999999,131.26897069872274 52.79999999999998,131.26897069872274 54.400000000000006,132.02028549962435 56.0,132.02028549962435 57.599999999999994,132.02028549962435 59.19999999999999,132.7716003005259 60.79999999999998,132.7716003005259 62.400000000000006,132.7716003005259 64.0,133.5229151014275 65.6,133.5229151014275 67.19999999999999,133.5229151014275 68.79999999999998,133.5229151014275 70.4,133.5229151014275 72.0,133.5229151014275 73.6,127.51239669421489 75.19999999999999,128.26371149511644 76.80000000000001,129.01502629601802 78.39999999999999,129.76634109691958 80.0,130.5176558978212 81.6,131.26897069872274 83.19999999999999,131.26897069872274 84.8,132.02028549962435 86.39999999999999,132.02028549962435 88.0,132.7716003005259 89.6,132.7716003005259 91.19999999999999,132.7716003005259 92.79999999999998,133.5229151014275 94.4,133.5229151014275 96.0,133.5229151014275 97.6,133.5229151014275 99.19999999999999,127.51239669421489 100.80000000000001,128.26371149511644 102.39999999999999,129.01502629601802 104.0,129.76634109691958 105.60000000000001,130.5176558978212 107.19999999999999,131.26897069872274 108.8,132.02028549962435 110.39999999999999,132.02028549962435 112.0,132.7716003005259 113.60000000000001,132.7716003005259 115.19999999999999,133.5229151014275 116.80000000000001,133.5229151014275 118.39999999999999,133.5229151014275 120.0,127.51239669421489 121.60000000000001,129.01502629601802 123.19999999999999,129.76634109691958 124.80000000000001,130.5176558978212 126.39999999999999,131.26897069872274 128.0,132.02028549962435 129.6,132.7716003005259 131.20000000000002,132.7716003005259 132.8,133.5229151014275 134.4,133.5229151014275 136.0,133.5229151014275 137.60000000000002,128.26371149511644 139.2,129.76634109691958 140.8,131.26897069872274 142.4,132.02028549962435 144.0,132.7716003005259 145.59999999999997,132.7716003005259 147.2,133.5229151014275 148.8,133.5229151014275 150.4,128.26371149511644 152.0,130.5176558978212 153.60000000000002,131.26897069872274 155.2,132.7716003005259 156.8,132.7716003005259 158.4,133.5229151014275 160.0,127.51239669421489 161.60000000000002,129.76634109691958 163.2,131.26897069872274 164.8,132.7716003005259 166.4,133.5229151014275 168.0,133.5229151014275 169.6,129.76634109691958 171.20000000000002,132.02028549962435 172.8,132.7716003005259 174.40000000000003,133.5229151014275 176.0,130.5176558978212 177.6,132.7716003005259 179.2,133.5229151014275 180.80000000000004,129.76634109691958 182.4,132.7716003005259 184.0,133.5229151014275 185.6,132.02028549962435 187.20000000000002,133.5229151014275 188.8,132.7716003005259 190.4,129.76634109691958 192.0,127.51239669421489 193.60000000000002,133.5229151014275 195.20000000000002,130.5176558978212 196.80000000000004,133.5229151014275 198.4,133.5229151014275 200.0,134.27422990232907 201.60000000000002,133.51540195341846 203.20000000000002,133.49286250939141 204.8,130.45003756574005 206.4,133.40270473328326 208.0,127.32456799398948 209.60000000000002,129.49586776859502 211.2,132.40345604808414 212.8,133.04207362885046 214.40000000000003,131.41172051089404 216.00000000000003,132.7716003005259 217.6,131.86250939143497 219.2,128.68444778362132 220.80000000000004,132.2531930879038 222.40000000000003,131.2990232907588 224.0,128.82719759579263 225.6,131.59954921111944 227.20000000000002,130.60030052592032 228.80000000000004,129.5860255447032 230.4,127.0540946656649 232.0,130.5176558978212 233.60000000000002,130.20961682945153 235.20000000000002,129.13523666416228 236.8,127.29451540195342 238.4,125.43876784372651 240.0,122.81667918858001 241.60000000000002,128.44402704733284 243.20000000000002,127.29451540195342 244.8,126.88129226145755 246.4,124.95041322314049 248.0,123.75582268970697 249.60000000000002,121.04357625845228 251.19999999999996,125.82945154019535 252.8,125.34109691960929 254.4,124.08640120210367 256.0,123.5679939894816 257.6,122.2832456799399 259.20000000000005,120.98347107438015 260.8,118.91735537190081 262.4,116.83621337340344 264.0,121.50187828700224 265.6,120.89331329827196 267.20000000000005,120.26972201352366 268.80000000000007,118.87978963185574 270.4,118.22614575507136 272.0,116.80616078136738 273.6,115.37114951164537 275.20000000000005,113.92111194590532 276.8,112.45604808414724 278.4,110.97595792637115 280.0,108.72952667167543 281.6,113.98121712997744 283.20000000000005,113.20736288504882 284.8,112.41848234410217 286.4,110.8632607062359 288.0,110.04432757325318 289.6,108.45905334335086 291.19999999999993,107.61006761833207 292.8,105.99474079639367 294.4,104.36438767843724 296.0,102.7190082644628 297.6,101.05860255447031 299.2,99.38317054845977 300.8,97.69271224643123 302.40000000000003,102.74906085649886 304.0,101.77986476333582 305.6,100.79564237415474 307.2,99.79639368895565 308.80000000000007,98.03080390683695 310.40000000000003,97.00150262960179 312.0,95.9571750563486 313.6000000000001,94.14650638617579 315.2,93.07212622088655 316.8,91.23140495867766 318.4,90.12697220135236 320.0,88.25619834710741 321.6000000000001,86.37039819684446 323.2,84.46957175056347 324.8,82.55371900826444 326.4,80.6228399699474 328.0,85.43876784372651 329.6,84.22915101427498 331.20000000000005,83.00450788880539 332.8,81.76483846731779 334.40000000000003,80.51014274981216 336.0,79.24042073628848 337.6,77.20435762584523 339.20000000000005,75.90458302028549 340.8,74.58978211870773 342.40000000000003,72.50864012021034 344.0,71.16378662659655 345.6,69.80390683696467 347.20000000000005,67.67768595041319 348.80000000000007,66.2877535687453 350.40000000000003,64.13148009015777 352.0,62.7114951164538 353.6000000000001,60.52516904583019 355.20000000000005,58.32381667918856 356.8,56.10743801652891 358.4,53.87603305785123 360.0,58.39143501126972 " />
 
    <g font-family="sans-serif" font-size="10" > <text x="362.0" y="102.0616078136739" dy="0" fill="black" dominant-baseline="middle" > line #1 </text>
 <text x="362.0" y="59.1427498121713" dy="2" fill="blue" dominant-baseline="middle" > line #2 </text>
 <text x="362.0" y="58.39143501126972" dy="-5" fill="red" dominant-baseline="middle" > line #3 </text>
</g>
    <polyline fill="none" stroke="black" stroke-width="1" points="40.0,176.0 40.0,178.0 120.0,178.0 120.0,176.0 120.0,178.0 200.0,178.0 200.0,176.0 200.0,178.0 280.0,178.0 280.0,176.0 280.0,178.0 360.0,178.0 360.0,176.0" />
    <g font-family="sans-serif" font-size="10" > <text x="40.0" y="180.0" fill="black" text-anchor="middle" dominant-baseline="hanging" > -10 </text>
 <text x="120.0" y="180.0" fill="black" text-anchor="middle" dominant-baseline="hanging" > -5 </text>
 <text x="200.0" y="180.0" fill="black" text-anchor="middle" dominant-baseline="hanging" > 0 </text>
 <text x="280.0" y="180.0" fill="black" text-anchor="middle" dominant-baseline="hanging" > 5 </text>
 <text x="360.0" y="180.0" fill="black" text-anchor="middle" dominant-baseline="hanging" > 10 </text> </g>
    <text x="200.0" y="198" fill="black" text-anchor="middle" font-family="sans-serif" font-size="10"> my x label </text>
    <polyline fill="none" stroke="black" stroke-width="1" points="38.0,171.83996994740795 36.0,171.83996994740795 36.0,134.27422990232907 38.0,134.27422990232907 36.0,134.27422990232907 36.0,96.70848985725017 38.0,96.70848985725017 36.0,96.70848985725017 36.0,59.1427498121713 38.0,59.1427498121713" />
    <g font-family="sans-serif" font-size="10" > <text x="34.0" y="171.83996994740795" fill="black" text-anchor="end" dominant-baseline="middle" > -50 </text>
 <text x="34.0" y="134.27422990232907" fill="black" text-anchor="end" dominant-baseline="middle" > 0 </text>
 <text x="34.0" y="96.70848985725017" fill="black" text-anchor="end" dominant-baseline="middle" > 50 </text>
 <text x="34.0" y="59.1427498121713" fill="black" text-anchor="end" dominant-baseline="middle" > 100 </text> </g>
    <text fill="black" text-anchor="middle" dominant-baseline="hanging" transform="translate(2,100.0) rotate(270)" font-family="sans-serif" font-size="10"> my y label </text>
    <text x="200.0" y="2" fill="black" text-anchor="middle" dominant-baseline="hanging" font-family="sans-serif" font-size="10"> my title </text>

    </svg>
    