<?xml version="1.0" standalone="no"?>
    <svg width="7.68in" height="3.84in" viewBox="0 0 400 200" 
    xmlns="http://www.w3.org/2000/svg" version="1.1">

    
    <polyline fill="none" stroke="black" stroke-width="1" points="40.0,100.0 67.17808219178082,63.0 91.72602739726028,35.91412011995155 118.86757990867581,26.0 145.16894977168948,35.91412011995153 172.34703196347033,62.999999999999964 198.64840182648402,99.99999999999997 225.82648401826486,136.99999999999997 253.0045662100457,164.08587988004845 279.30593607305934,174.0 306.4840182648402,164.08587988004848 332.8219178082192,137.00000000000006 360.0,100.00000000000001 " />
 <polyline fill="none" stroke="blue" stroke-width="1" points="40.0,26.0 67.17808219178082,35.91412011995153 91.72602739726028,63.0 118.86757990867581,100.0 145.16894977168948,136.99999999999997 172.34703196347033,164.08587988004845 198.64840182648402,174.0 225.82648401826486,164.08587988004848 253.0045662100457,137.00000000000006 279.30593607305934,100.00000000000001 306.4840182648402,63.00000000000005 332.8219178082192,35.91412011995156 360.0,26.0 " />
 
    <g font-family="sans-serif" font-size="10" > <text x="362.0" y="100.00000000000001" dy="0" fill="black" dominant-baseline="middle" > y1 </text>
 <text x="362.0" y="26.0" dy="0" fill="blue" dominant-baseline="middle" > y2 </text>
</g>
    <polyline fill="none" stroke="black" stroke-width="1" points="40.0,176.0 40.0,178.0 118.86757990867581,178.0 118.86757990867581,176.0 118.86757990867581,178.0 198.64840182648402,178.0 198.64840182648402,176.0 198.64840182648402,178.0 279.30593607305934,178.0 279.30593607305934,176.0 279.30593607305934,178.0 360.0,178.0 360.0,176.0" />
    <g font-family="sans-serif" font-size="10" > <text x="40.0" y="180.0" fill="black" text-anchor="middle" dominant-baseline="hanging" > 2021-01-01 </text>
 <text x="118.86757990867581" y="180.0" fill="black" text-anchor="middle" dominant-baseline="hanging" > 2021-04-01 </text>
 <text x="198.64840182648402" y="180.0" fill="black" text-anchor="middle" dominant-baseline="hanging" > 2021-07-01 </text>
 <text x="279.30593607305934" y="180.0" fill="black" text-anchor="middle" dominant-baseline="hanging" > 2021-10-01 </text>
 <text x="360.0" y="180.0" fill="black" text-anchor="middle" dominant-baseline="hanging" > 2022-01-01 </text> </g>
    <text x="200.0" y="198" fill="black" text-anchor="middle" font-family="sans-serif" font-size="10"> x label </text>
    <polyline fill="none" stroke="black" stroke-width="1" points="38.0,174.0 36.0,174.0 36.0,100.0 38.0,100.0 36.0,100.0 36.0,26.0 38.0,26.0" />
    <g font-family="sans-serif" font-size="10" > <text x="34.0" y="174.0" fill="black" text-anchor="end" dominant-baseline="middle" > -1 </text>
 <text x="34.0" y="100.0" fill="black" text-anchor="end" dominant-baseline="middle" > 0 </text>
 <text x="34.0" y="26.0" fill="black" text-anchor="end" dominant-baseline="middle" > 1 </text> </g>
    <text fill="black" text-anchor="middle" dominant-baseline="hanging" transform="translate(2,100.0) rotate(270)" font-family="sans-serif" font-size="10"> y label </text>
    <text x="200.0" y="2" fill="black" text-anchor="middle" dominant-baseline="hanging" font-family="sans-serif" font-size="10"> Time Example </text>

    </svg>
    